# xmcd
#
# Track frame offsets: 
#        150
#        9090
#        19740
#        31327
#        41710
#        53152
#        61817
#        72687
#        86420
#        98182
#        107565
#        122107
#
# Disc length: 1854 seconds
#
# Revision: 0
# Processed by: cddbd v1.5.1PL0 Copyright (c) Steve Scherf et al.
# Submitted via: ExactAudioCopy v0.95a5
#
DISCID=95073c0c
DTITLE=Rick Nelson - The Best Of Rick Nelson
DYEAR=2003
DGENRE=Rock/Pop
TTITLE0=I'm Walkin'
TTITLE1=String Along
TTITLE2=Fools Rush In
TTITLE3=For You
TTITLE4=Gypsy Woman
TTITLE5=The Very Thought Of You
TTITLE6=Mystery Train
TTITLE7=She Belongs To Me
TTITLE8=Hello Mary Lou, Goodbye Heart
TTITLE9=Believe What You Say
TTITLE10=Easy To Be Free
TTITLE11=Garden Party
EXTD=
EXTT0=
EXTT1=
EXTT2=
EXTT3=
EXTT4=
EXTT5=
EXTT6=
EXTT7=
EXTT8=
EXTT9=
EXTT10=
EXTT11=
PLAYORDER=
